<mxfile host="app.diagrams.net" modified="2024-04-08T11:02:49.310Z" agent="Mozilla/5.0 (Windows NT 10.0; Win64; x64) AppleWebKit/537.36 (KHTML, like Gecko) Chrome/123.0.0.0 Safari/537.36" version="24.2.2" etag="9sJ8g7JXANRmlAb6N6cl" type="github">
  <diagram name="Page-1" id="xuEd7eqO7Q8FlfG9VAz_">
    <mxGraphModel>
      <root>
        <mxCell id="0" />
        <mxCell id="1" parent="0" />
      </root>
    </mxGraphModel>
  </diagram>
</mxfile>
